<svg width="17" height="21" viewBox="0 0 17 21" fill="none" xmlns="http://www.w3.org/2000/svg">
<path d="M1 19.75H4.75M16 19.75H8.5" stroke="#DEAD00" stroke-linecap="round"/>
<path d="M10.2701 2.559L10.9652 1.86383C12.117 0.712056 13.9844 0.712056 15.1362 1.86383C16.2879 3.01562 16.2879 4.88301 15.1362 6.03479L14.441 6.72995M10.2701 2.559C10.2701 2.559 10.3569 4.03621 11.6604 5.33963C12.9638 6.64306 14.441 6.72995 14.441 6.72995M10.2701 2.559L3.87912 8.94991C3.44625 9.38275 3.22981 9.59922 3.04368 9.83791C2.8241 10.1193 2.63585 10.4239 2.48225 10.7462C2.35205 11.0194 2.25526 11.3099 2.06167 11.8907L1.24136 14.3516M14.441 6.72995L11.2456 9.92537M1.24136 14.3516L1.04084 14.9531C0.94557 15.2389 1.01995 15.554 1.23297 15.767C1.446 15.98 1.76108 16.0545 2.04688 15.9591L2.64844 15.7587M1.24136 14.3516L2.64844 15.7587M8.05009 13.1208C7.61725 13.5538 7.40078 13.7702 7.16209 13.9563C6.88066 14.1759 6.57602 14.3642 6.25373 14.5177C5.98053 14.6479 5.69014 14.7448 5.10938 14.9383L2.64844 15.7587" stroke="#DEAD00" stroke-linecap="round"/>
</svg>
