<svg width="79" height="79" viewBox="0 0 79 79" fill="none" xmlns="http://www.w3.org/2000/svg">
<path d="M39.5 39.5C45.7132 39.5 50.75 34.4632 50.75 28.25C50.75 22.0368 45.7132 17 39.5 17C33.2868 17 28.25 22.0368 28.25 28.25C28.25 34.4632 33.2868 39.5 39.5 39.5Z" stroke="#295FE6" stroke-width="3"/>
<path d="M61.8841 69.5C61.2875 58.6569 57.9676 50.75 39.4996 50.75C21.032 50.75 17.7122 58.6569 17.1154 69.5" stroke="#295FE6" stroke-width="3" stroke-linecap="round"/>
<path d="M20.75 7.01683C26.2658 3.82614 32.6697 2 39.5 2C60.2105 2 77 18.7893 77 39.5C77 60.2105 60.2105 77 39.5 77C18.7893 77 2 60.2105 2 39.5C2 32.6697 3.82614 26.2658 7.01683 20.75" stroke="#295FE6" stroke-width="3" stroke-linecap="round"/>
</svg>
