<svg width="22" height="22" viewBox="0 0 22 22" fill="none" xmlns="http://www.w3.org/2000/svg">
<path d="M16.5556 7C16.5556 11.0637 12.0556 13 10.5556 16C9.05556 13 4.55556 11.0637 4.55556 7C4.55556 3.68629 7.24185 1 10.5556 1C13.8693 1 16.5556 3.68629 16.5556 7Z" stroke="#DEAD00" stroke-width="2" stroke-linecap="round" stroke-linejoin="round"/>
<path d="M4 13C2.14864 13.8167 1 14.9548 1 16.2136C1 18.6989 5.47715 20.7136 11 20.7136C16.5228 20.7136 21 18.6989 21 16.2136C21 14.9548 19.8514 13.8167 18 13" stroke="#DEAD00" stroke-width="2" stroke-linecap="round" stroke-linejoin="round"/>
<path d="M11.6667 7.33334C11.6667 7.88562 11.219 8.33334 10.6667 8.33334C10.1144 8.33334 9.66667 7.88562 9.66667 7.33334C9.66667 6.78106 10.1144 6.33334 10.6667 6.33334C11.219 6.33334 11.6667 6.78106 11.6667 7.33334Z" stroke="#DEAD00" stroke-width="2" stroke-linecap="round" stroke-linejoin="round"/>
</svg>
