<svg width="34" height="33" viewBox="0 0 34 33" fill="none" xmlns="http://www.w3.org/2000/svg">
<path d="M31.9731 27.3846C31.9132 28.8249 31.7204 29.7078 31.0988 30.3295C30.1975 31.2308 28.7471 31.2308 25.8461 31.2308C22.9452 31.2308 21.4948 31.2308 20.5935 30.3295C19.6923 29.4283 19.6923 27.9778 19.6923 25.0769V22C19.6923 19.0991 19.6923 17.6486 20.5935 16.7474C21.4948 15.8462 22.9452 15.8462 25.8461 15.8462C28.7471 15.8462 30.1975 15.8462 31.0988 16.7474C31.9166 17.5651 31.9923 18.8351 31.9992 21.2308" stroke="#DEAD00" stroke-width="3" stroke-linecap="round"/>
<path d="M2 11.2308C2 14.1317 2 15.5822 2.90122 16.4834C3.80242 17.3846 5.25289 17.3846 8.15385 17.3846C11.0548 17.3846 12.5053 17.3846 13.4065 16.4834C14.3077 15.5822 14.3077 14.1317 14.3077 11.2308V8.15385C14.3077 5.25289 14.3077 3.80242 13.4065 2.90122C12.5053 2 11.0548 2 8.15385 2C5.25289 2 3.80242 2 2.90122 2.90122C2 3.80242 2 5.25289 2 8.15385V11.2308Z" stroke="#2860E7" stroke-width="3"/>
<path d="M22.7692 2.02066C22.2657 2.04641 21.9054 2.10426 21.5917 2.23421C20.8378 2.54649 20.2388 3.14549 19.9264 3.89943C19.6923 4.46488 19.6923 5.18171 19.6923 6.61537C19.6923 8.04904 19.6923 8.76588 19.9264 9.33132C20.2388 10.0853 20.8378 10.6843 21.5917 10.9965C22.1572 11.2308 22.874 11.2308 24.3077 11.2308H27.3846C28.8183 11.2308 29.5351 11.2308 30.1006 10.9965C30.8544 10.6843 31.4535 10.0853 31.7658 9.33132C32 8.76588 32 8.04904 32 6.61537C32 5.18171 32 4.46488 31.7658 3.89943C31.4535 3.14549 30.8544 2.54649 30.1006 2.23421C29.7869 2.10426 29.4266 2.04641 28.9231 2.02066" stroke="#2860E7" stroke-width="3" stroke-linecap="round"/>
<path d="M2 26.6154C2 28.0491 2 28.7658 2.23422 29.3314C2.54651 30.0852 3.14551 30.6843 3.89943 30.9966C4.46489 31.2308 5.18172 31.2308 6.61538 31.2308H9.69231C11.126 31.2308 11.8428 31.2308 12.4083 30.9966C13.1622 30.6843 13.7612 30.0852 14.0735 29.3314C14.3077 28.7658 14.3077 28.0491 14.3077 26.6154C14.3077 25.1817 14.3077 24.4649 14.0735 23.8994C13.7612 23.1455 13.1622 22.5465 12.4083 22.2342C11.8428 22 11.126 22 9.69231 22H6.61538C5.18172 22 4.46489 22 3.89943 22.2342C3.14551 22.5465 2.54651 23.1455 2.23422 23.8994C2 24.4649 2 25.1817 2 26.6154Z" stroke="#2860E7" stroke-width="3"/>
</svg>
