<svg width="34" height="36" viewBox="0 0 34 36" fill="none" xmlns="http://www.w3.org/2000/svg">
<path d="M25.9684 11.5358L26.7002 10.804C27.9126 9.59163 29.8783 9.59163 31.0907 10.804C32.3031 12.0164 32.3031 13.9821 31.0907 15.1945L30.359 15.9263M25.9684 11.5358C25.9684 11.5358 26.06 13.0907 27.4319 14.4628C28.804 15.8347 30.359 15.9263 30.359 15.9263M25.9684 11.5358L19.2411 18.263C18.7855 18.7187 18.5576 18.9465 18.3617 19.1977C18.1307 19.4941 17.9325 19.8148 17.7708 20.1539C17.6338 20.4416 17.5318 20.7471 17.3281 21.3585L16.6757 23.3158L16.4646 23.9489M30.359 15.9263L23.6317 22.6535C23.176 23.1092 22.9482 23.3371 22.697 23.533C22.4006 23.764 22.0799 23.9622 21.7408 24.1239C21.4531 24.2609 21.1476 24.3629 20.5362 24.5666L18.5789 25.219L17.9458 25.4301M16.4646 23.9489L16.2535 24.5822C16.1532 24.883 16.2315 25.2148 16.4557 25.439C16.6799 25.6632 17.0117 25.7415 17.3125 25.6412L17.9458 25.4301M16.4646 23.9489L17.9458 25.4301" stroke="#DEAD00" stroke-width="3"/>
<path d="M9.89473 19.3684H13.8421" stroke="#275BE2" stroke-width="3" stroke-linecap="round"/>
<path d="M9.89473 13.0526H20.1579" stroke="#275BE2" stroke-width="3" stroke-linecap="round"/>
<path d="M9.89473 25.6842H12.2631" stroke="#275BE2" stroke-width="3" stroke-linecap="round"/>
<path d="M2 20.9473V14.6316C2 8.67698 2 5.69971 3.84984 3.84984C5.69971 2 8.67698 2 14.6316 2H17.7895C23.744 2 26.7214 2 28.5711 3.84984M30.421 20.9473C30.421 26.9019 30.421 29.8793 28.5711 31.729M28.5711 31.729C26.7214 33.5789 23.744 33.5789 17.7895 33.5789H14.6316C8.67698 33.5789 5.69971 33.5789 3.84984 31.729M28.5711 31.729C30.0602 30.2399 30.3506 28.0204 30.4073 24.1052" stroke="#275BE2" stroke-width="3" stroke-linecap="round"/>
</svg>
