<svg width="32" height="32" viewBox="0 0 32 32" fill="none" xmlns="http://www.w3.org/2000/svg">
<path d="M16 8.5V17.5" stroke="#DEAD00" stroke-width="2" stroke-linecap="round"/>
<path d="M16 23.5C16.8284 23.5 17.5 22.8284 17.5 22C17.5 21.1716 16.8284 20.5 16 20.5C15.1716 20.5 14.5 21.1716 14.5 22C14.5 22.8284 15.1716 23.5 16 23.5Z" fill="#DEAD00"/>
<path d="M8.5 3.00673C10.7063 1.73046 13.2679 1 16 1C24.2842 1 31 7.71572 31 16C31 24.2842 24.2842 31 16 31C7.71572 31 1 24.2842 1 16C1 13.2679 1.73046 10.7063 3.00673 8.5" stroke="#DEAD00" stroke-width="2" stroke-linecap="round"/>
</svg>
