<svg width="42" height="42" viewBox="0 0 42 42" fill="none" xmlns="http://www.w3.org/2000/svg">
<path d="M19.9999 28C16.6862 28 13.9999 25.3138 13.9999 22V18M19.9999 28C23.3137 28 25.9999 25.3138 25.9999 22V18M19.9999 28V18M13.9999 18C13.9999 14.6863 16.6862 12 19.9999 12C23.3137 12 25.9999 14.6863 25.9999 18M13.9999 18H25.9999M26.1429 20H28.9999M10.9999 20H13.9999M25.9999 25L27.9999 26M13.9999 25L11.9999 26M25.9999 15L27.9999 14M13.9999 15L11.9999 14" stroke="#DEAD00" stroke-width="2" stroke-linecap="round"/>
<path d="M37 37L41 41" stroke="#DEAD00" stroke-width="2" stroke-linecap="round"/>
<path d="M10.5 3.54186C13.2946 1.92524 16.5393 1 20 1C30.4934 1 39 9.50658 39 20C39 30.4934 30.4934 39 20 39C9.50658 39 1 30.4934 1 20C1 16.5393 1.92524 13.2946 3.54186 10.5" stroke="#DEAD00" stroke-width="2" stroke-linecap="round"/>
</svg>
