<svg width="34" height="34" viewBox="0 0 34 34" fill="none" xmlns="http://www.w3.org/2000/svg">
<path d="M11 14.75H23" stroke="#265AE1" stroke-width="3" stroke-linecap="round"/>
<path d="M11 20H19.25" stroke="#DEAD00" stroke-width="3" stroke-linecap="round"/>
<path d="M24.5 4.00673C22.2936 2.73046 19.7321 2 17 2C8.71572 2 2 8.71572 2 17C2 19.3995 2.56343 21.6674 3.56519 23.6787C3.83141 24.2132 3.92001 24.8241 3.76568 25.4009L2.87227 28.7401C2.48443 30.1895 3.81051 31.5155 5.26002 31.1278L8.59909 30.2344C9.1759 30.08 9.78682 30.1686 10.3213 30.4347C12.3326 31.4366 14.6005 32 17 32C25.2842 32 32 25.2842 32 17C32 14.2679 31.2695 11.7063 29.9933 9.5" stroke="#265AE1" stroke-width="3" stroke-linecap="round"/>
</svg>
