<svg width="17" height="17" viewBox="0 0 17 17" fill="none" xmlns="http://www.w3.org/2000/svg">
<path d="M1 8.49954H11.5004M11.5004 8.49954L8.87532 6.24947M11.5004 8.49954L8.87532 10.7496" stroke="#275BE2" stroke-width="2" stroke-linecap="round" stroke-linejoin="round"/>
<path d="M6.25098 4.75015C6.26006 3.11881 6.3324 2.23534 6.90871 1.65904C7.56777 1 8.62846 1 10.7498 1H11.4999C13.6213 1 14.682 1 15.341 1.65904C16 2.31807 16 3.37877 16 5.50018V11.5004C16 13.6218 16 14.6825 15.341 15.3415C14.7647 15.9179 13.8812 15.9902 12.2497 15.9993M6.25098 12.2504C6.26006 13.8818 6.3324 14.7652 6.90871 15.3415C7.38971 15.8225 8.08461 15.9525 9.24963 15.9876" stroke="#275BE2" stroke-width="2" stroke-linecap="round"/>
</svg>
