<svg width="34" height="34" viewBox="0 0 34 34" fill="none" xmlns="http://www.w3.org/2000/svg">
<path d="M25.3333 11C25.3333 17.0956 18.5833 20 16.3333 24.5C14.0833 20 7.33333 17.0956 7.33333 11C7.33333 6.02944 11.3628 2 16.3333 2C21.3039 2 25.3333 6.02944 25.3333 11Z" stroke="#265AE1" stroke-width="3" stroke-linecap="round" stroke-linejoin="round"/>
<path d="M6.5 20C3.72296 21.2251 2 22.9322 2 24.8204C2 28.5484 8.71573 31.5704 17 31.5704C25.2842 31.5704 32 28.5484 32 24.8204C32 22.9322 30.2771 21.2251 27.5 20" stroke="#265AE1" stroke-width="3" stroke-linecap="round" stroke-linejoin="round"/>
<path d="M18 11.5C18 12.3284 17.3285 13 16.5 13C15.6715 13 15 12.3284 15 11.5C15 10.6716 15.6715 10 16.5 10C17.3285 10 18 10.6716 18 11.5Z" stroke="#DEAD00" stroke-width="3" stroke-linecap="round" stroke-linejoin="round"/>
</svg>
