<svg width="39" height="40" viewBox="0 0 39 40" fill="none" xmlns="http://www.w3.org/2000/svg">
<path d="M1.5 29.2353V10C1.5 5.30558 5.30558 1.5 10 1.5H29C33.6944 1.5 37.5 5.30559 37.5 10V29.2353C37.5 33.9297 33.6944 37.7353 29 37.7353H10C5.30558 37.7353 1.5 33.9297 1.5 29.2353Z" fill="#1F49C2" stroke="#1F49C2" stroke-width="3"/>
<path d="M23.7357 21.9336V21.8613C24.1877 21.8345 24.5909 21.56 24.7799 21.1442L24.8246 21.0459L24.3694 20.839L24.8246 21.0459C24.8675 20.9515 24.8998 20.8527 24.9208 20.7511L24.9324 20.6949C25.0256 20.6875 25.1172 20.6632 25.2026 20.6228L25.362 20.5473C25.8773 20.3031 26.1847 19.7625 26.1311 19.1949L26.1073 18.9431C26.0801 18.6544 25.9801 18.3774 25.8169 18.1378L25.4037 18.4194L25.8169 18.1378L25.6486 17.8908C25.4424 17.5883 25.1804 17.3279 24.8767 17.1236L24.5466 16.9016C24.2212 16.6828 23.8709 16.5034 23.503 16.3673L23.1927 16.2525C22.5995 16.0331 21.9816 15.8875 21.3529 15.8189L20.4493 15.7204L19.8147 15.6025C19.3428 15.5148 18.9023 15.3041 18.5378 14.9918L18.3738 14.8512C18.0154 14.5441 17.7707 14.1254 17.6789 13.6624L17.5357 12.94C17.5197 12.8595 17.5362 12.7759 17.5814 12.7074C17.9239 12.1891 17.856 11.5016 17.4186 11.0604L16.9056 10.5429L16.5524 10.893L16.9056 10.5429C16.4909 10.1244 15.9262 9.88907 15.337 9.88907H11.3738C9.82378 9.88907 8.4883 10.981 8.18031 12.5001L7.97433 13.516C7.89643 13.9002 8.00722 14.2985 8.27232 14.5873L8.81743 15.1812C8.8217 15.1858 8.82416 15.1893 8.82549 15.1913C8.82645 15.1928 8.82697 15.1938 8.82722 15.1944C8.82707 15.1963 8.82607 15.2033 8.8199 15.2126C8.81372 15.2219 8.80767 15.2255 8.80595 15.2264C8.80535 15.2264 8.80421 15.2263 8.80246 15.226C8.80004 15.2256 8.7959 15.2246 8.78997 15.2225C8.20156 15.0114 7.5628 15.3714 7.43856 15.984L5.79234 24.1024C5.3702 26.1842 6.96143 28.1305 9.08558 28.1305H9.63006C10.914 28.1305 12.0197 27.2249 12.2727 25.9661L13.812 18.307C13.8121 18.3063 13.8122 18.3057 13.8124 18.3051C13.813 18.3051 13.8136 18.305 13.8143 18.305C13.815 18.305 13.8156 18.305 13.8162 18.3051C13.8164 18.3056 13.8165 18.3062 13.8167 18.3069C13.8615 18.4996 13.9624 18.6748 14.1066 18.8103L19.3835 23.7689C19.6637 24.0321 20.0137 24.2091 20.3918 24.2786L20.5628 24.31L20.6532 23.8182L20.5628 24.31C20.8968 24.3713 21.2417 24.3178 21.5413 24.158L21.8164 24.0113C22.1309 23.8435 22.3295 23.5189 22.3365 23.1635L22.3919 23.17C22.7299 23.2095 23.0661 23.0827 23.2937 22.8297L23.4647 22.6397C23.6392 22.4459 23.7357 22.1944 23.7357 21.9336Z" fill="#FFF9F9" stroke="#1F49C2"/>
<path d="M24.2643 28.0514L24.1751 28.6278H24.7584H30.5098H30.9312L31.0026 28.2125L34.07 10.3632L34.1705 9.77854H33.5772H23.7634C23.4704 9.77854 23.1877 9.88595 22.9686 10.0804L22.0453 10.9001L22.3672 11.2627L22.0453 10.9001C21.7807 11.1351 21.6292 11.4721 21.6292 11.826V12.2904C21.6292 12.4458 21.6718 12.5968 21.7507 12.7278L21.247 12.9818C21.215 12.998 21.1809 13.0097 21.1457 13.0165L20.3674 13.1685C19.9031 13.2592 19.4256 13.2592 18.9612 13.1685L18.3906 13.0571C17.9252 12.9662 17.4825 13.2955 17.4357 13.7675C17.3718 14.4118 17.6202 15.0477 18.1038 15.4783L18.4346 15.1067L18.1038 15.4783L18.1953 15.5597C18.4158 15.756 18.6725 15.9072 18.951 16.0049L19.4311 16.1734C19.7655 16.2907 20.1117 16.371 20.4635 16.4128L20.92 16.4669L20.9494 16.4704H20.9789C21.6746 16.4704 22.3637 16.6042 23.0088 16.8646L23.2866 16.9767L24.1858 17.4569L24.7409 17.7812C25.094 17.9874 25.5179 17.9774 25.8528 17.7851L24.2643 28.0514ZM25.9249 16.5927L25.9087 16.6281L25.9249 16.5927Z" fill="#FFF9F9" stroke="#1F49C2"/>
<path d="M15.5084 21.2914L15.5084 20.7917L15.0088 20.7917L14.5114 20.7917C14.4403 20.7917 14.3724 20.7628 14.3232 20.7115C14.2653 20.6513 14.2399 20.5669 14.2547 20.4846L14.2597 20.4571L13.7676 20.3687L14.2597 20.4571C14.2688 20.4066 14.29 20.3591 14.3216 20.3187L14.784 19.7261L18.3751 23.1028L17.4479 23.3034L17.2368 23.3491C17.1312 23.372 17.0212 23.343 16.9406 23.2711C16.8567 23.1962 16.8156 23.0844 16.831 22.9729L16.8731 22.6701L16.9643 22.0121L16.3068 22.1068L16.0063 22.1501C15.8696 22.1698 15.7318 22.1237 15.6347 22.0257C15.5538 21.9441 15.5084 21.8338 15.5084 21.7189L15.5084 21.2914ZM18.0138 23.9866L18.3839 23.1111L19.0418 23.7296L18.5094 24.3153C18.471 24.3575 18.4224 24.3893 18.3683 24.4074L18.3395 24.4171C18.2452 24.4489 18.1411 24.4284 18.0659 24.3633C17.9736 24.2835 17.9433 24.1534 17.9908 24.041L18.0138 23.9866ZM19.3017 23.4438L19.3014 23.4442L19.3017 23.4438Z" fill="#FFF9F9" stroke="#1F49C2"/>
</svg>
