<svg width="30" height="36" viewBox="0 0 30 36" fill="none" xmlns="http://www.w3.org/2000/svg">
<path d="M17.9464 17.4677C18.629 17.3654 19.0995 16.7289 18.997 16.046C18.8947 15.3634 18.2582 14.8931 17.5755 14.9954L17.9464 17.4677ZM24.3698 13.9762C23.6872 14.0786 23.2167 14.7151 23.3192 15.3979C23.4215 16.0805 24.058 16.551 24.7406 16.4485L24.3698 13.9762ZM12.0911 21.2498V22.4998H13.3204L13.3409 21.2707L12.0911 21.2498ZM1.24999 4.16664C0.559646 4.16664 0 4.72628 0 5.41663C0 6.10697 0.559646 6.66662 1.24999 6.66662V4.16664ZM8.74994 2.49998C9.44026 2.49998 9.99993 1.94034 9.99993 1.24999C9.99993 0.559648 9.44026 2.70312e-06 8.74994 2.70312e-06V2.49998ZM15.4166 2.70312e-06C14.7262 2.70312e-06 14.1666 0.559648 14.1666 1.24999C14.1666 1.94034 14.7262 2.49998 15.4166 2.49998V2.70312e-06ZM17.9165 8.33327H6.24995V10.8333H17.9165V8.33327ZM6.24995 8.33327C5.44811 8.33327 4.9303 8.33207 4.53788 8.29651C4.16264 8.26251 4.0264 8.20512 3.9583 8.16581L2.70831 10.3309C3.22033 10.6265 3.76359 10.7366 4.31222 10.7863C4.84366 10.8345 5.49411 10.8333 6.24995 10.8333V8.33327ZM0.833327 5.41663C0.833327 6.17247 0.832127 6.82292 0.880294 7.35436C0.930027 7.90299 1.04011 8.44626 1.33572 8.95827L3.50077 7.70828C3.46146 7.64018 3.40407 7.50395 3.37007 7.1287C3.33451 6.73628 3.33331 6.21847 3.33331 5.41663H0.833327ZM3.9583 8.16581C3.76829 8.05609 3.61049 7.89829 3.50077 7.70828L1.33572 8.95827C1.66485 9.52833 2.13825 10.0017 2.70831 10.3309L3.9583 8.16581ZM20.8332 5.41663C20.8332 6.21847 20.832 6.73628 20.7963 7.1287C20.7623 7.50395 20.705 7.64018 20.6657 7.70828L22.8308 8.95827C23.1263 8.44626 23.2365 7.90299 23.2862 7.35436C23.3343 6.82292 23.3332 6.17247 23.3332 5.41663H20.8332ZM17.9165 10.8333C18.6724 10.8333 19.3229 10.8345 19.8544 10.7863C20.4029 10.7366 20.9462 10.6265 21.4582 10.3309L20.2082 8.16581C20.14 8.20512 20.0039 8.26251 19.6287 8.29651C19.2362 8.33207 18.7184 8.33327 17.9165 8.33327V10.8333ZM20.6657 7.70828C20.556 7.89829 20.3982 8.05609 20.2082 8.16581L21.4582 10.3309C22.0282 10.0017 22.5017 9.52833 22.8308 8.95827L20.6657 7.70828ZM17.9165 2.49998C18.7184 2.49998 19.2362 2.50118 19.6287 2.53675C20.0039 2.57075 20.14 2.62813 20.2082 2.66745L21.4582 0.502399C20.9462 0.206784 20.4029 0.096702 19.8544 0.046969C19.3229 -0.00119728 18.6724 2.70312e-06 17.9165 2.70312e-06V2.49998ZM23.3332 5.41663C23.3332 4.66078 23.3343 4.01034 23.2862 3.47889C23.2365 2.93026 23.1263 2.387 22.8308 1.87499L20.6657 3.12498C20.705 3.19308 20.7623 3.32931 20.7963 3.70456C20.832 4.09697 20.8332 4.61478 20.8332 5.41663H23.3332ZM20.2082 2.66745C20.3982 2.77717 20.556 2.93496 20.6657 3.12498L22.8308 1.87499C22.5017 1.30493 22.0282 0.83153 21.4582 0.502399L20.2082 2.66745ZM6.24995 2.70312e-06C5.49411 2.70312e-06 4.84366 -0.00119728 4.31222 0.046969C3.76359 0.096702 3.22033 0.206784 2.70831 0.502399L3.9583 2.66745C4.0264 2.62813 4.16264 2.57075 4.53788 2.53675C4.9303 2.50118 5.44811 2.49998 6.24995 2.49998V2.70312e-06ZM3.33331 5.41663C3.33331 4.61478 3.33451 4.09697 3.37007 3.70456C3.40407 3.32931 3.46146 3.19308 3.50077 3.12498L1.33572 1.87499C1.04011 2.387 0.930027 2.93026 0.880294 3.47889C0.832127 4.01034 0.833327 4.66078 0.833327 5.41663H3.33331ZM2.70831 0.502399C2.13825 0.83153 1.66485 1.30493 1.33572 1.87499L3.50077 3.12498C3.61049 2.93496 3.76829 2.77717 3.9583 2.66745L2.70831 0.502399ZM9.99993 31.2498V24.5832H7.49994V31.2498H9.99993ZM14.1666 24.5832V31.2498H16.6665V24.5832H14.1666ZM14.1666 31.2498C14.1666 32.0708 14.1639 32.5608 14.1167 32.9119C14.0951 33.0729 14.0696 33.1536 14.0546 33.1898C14.0512 33.1983 14.0484 33.2038 14.0467 33.2069C14.0451 33.2101 14.0447 33.2109 14.0446 33.2111C14.0452 33.2103 14.0451 33.2106 14.0446 33.2111L15.8122 34.9787C16.3274 34.4637 16.5147 33.8376 16.5944 33.2451C16.6692 32.6886 16.6665 32.0001 16.6665 31.2498H14.1666ZM12.0832 35.8331C12.8336 35.8331 13.5221 35.8357 14.0786 35.7609C14.6711 35.6812 15.2972 35.4939 15.8122 34.9787L14.0446 33.2111C14.0439 33.2116 14.0437 33.2118 14.0446 33.2111C14.0444 33.2113 14.0436 33.2116 14.0404 33.2133C14.0372 33.2149 14.0317 33.2178 14.0232 33.2211C13.9871 33.2361 13.9064 33.2616 13.7454 33.2833C13.3942 33.3304 12.9042 33.3331 12.0832 33.3331V35.8331ZM12.0832 22.4998C12.9042 22.4998 13.3942 22.5025 13.7454 22.5497C13.9064 22.5713 13.9871 22.5968 14.0232 22.6118C14.0317 22.6152 14.0372 22.618 14.0404 22.6197C14.0436 22.6213 14.0444 22.6217 14.0446 22.6218C14.0437 22.6212 14.0439 22.6213 14.0446 22.6218L15.8122 20.8542C15.2972 20.339 14.6711 20.1517 14.0786 20.072C13.5221 19.9972 12.8336 19.9999 12.0832 19.9999V22.4998ZM16.6665 24.5832C16.6665 23.8328 16.6692 23.1443 16.5944 22.5878C16.5147 21.9953 16.3274 21.3692 15.8122 20.8542L14.0446 22.6218C14.0451 22.6223 14.0452 22.6227 14.0446 22.6218C14.0447 22.622 14.0451 22.6228 14.0467 22.626C14.0484 22.6292 14.0512 22.6347 14.0546 22.6432C14.0696 22.6793 14.0951 22.76 14.1167 22.921C14.1639 23.2722 14.1666 23.7622 14.1666 24.5832H16.6665ZM9.99993 24.5832C9.99993 23.7622 10.0026 23.2722 10.0498 22.921C10.0714 22.76 10.0969 22.6793 10.1119 22.6432C10.1153 22.6347 10.1181 22.6292 10.1198 22.626C10.1214 22.6228 10.1223 22.6213 10.1224 22.6212C10.1218 22.622 10.1219 22.6217 10.1224 22.6212L8.3542 20.8542C7.83918 21.3692 7.65176 21.9953 7.57211 22.5878C7.49729 23.1443 7.49994 23.8328 7.49994 24.5832H9.99993ZM12.0832 19.9999C11.3329 19.9999 10.6444 19.9972 10.0879 20.072C9.49543 20.1517 8.86927 20.339 8.3542 20.8542L10.1224 22.6212C10.1229 22.6207 10.1233 22.6205 10.1224 22.6212C10.1226 22.621 10.1229 22.6213 10.1261 22.6197C10.1293 22.618 10.1348 22.6152 10.1433 22.6118C10.1794 22.5968 10.2601 22.5713 10.4211 22.5497C10.7723 22.5025 11.2623 22.4998 12.0832 22.4998V19.9999ZM7.49994 31.2498C7.49994 32.0001 7.49729 32.6886 7.57211 33.2451C7.65176 33.8376 7.83918 34.4637 8.3542 34.9787L10.1219 33.2111C10.1214 33.2106 10.1213 33.2103 10.1219 33.2111C10.1218 33.2109 10.1214 33.2101 10.1198 33.2069C10.1181 33.2038 10.1153 33.1983 10.1119 33.1898C10.0969 33.1536 10.0714 33.0729 10.0498 32.9119C10.0026 32.5608 9.99993 32.0708 9.99993 31.2498H7.49994ZM12.0832 33.3331C11.2623 33.3331 10.7723 33.3304 10.4211 33.2833C10.2601 33.2616 10.1794 33.2361 10.1433 33.2211C10.1348 33.2178 10.1293 33.2149 10.1261 33.2133C10.1229 33.2116 10.1221 33.2113 10.1219 33.2111C10.1228 33.2118 10.1224 33.2116 10.1219 33.2111L8.3542 34.9787C8.86927 35.4939 9.49543 35.6812 10.0879 35.7609C10.6444 35.8357 11.3329 35.8331 12.0832 35.8331V33.3331ZM23.8247 4.16664H22.0832V6.66662H23.8247V4.16664ZM29.9998 10.3418C29.9998 9.61663 30.0004 9.01298 29.9681 8.5186C29.9353 8.01366 29.8643 7.53613 29.6811 7.07092L27.355 7.98674C27.4035 8.11009 27.4485 8.29757 27.4735 8.68124C27.4991 9.07543 27.4998 9.58398 27.4998 10.3418H29.9998ZM23.8247 6.66662C24.5825 6.66662 25.091 6.66724 25.4851 6.69294C25.8688 6.71795 26.0563 6.76289 26.1796 6.81145L27.0955 4.48525C26.6303 4.3021 26.1528 4.23117 25.6478 4.19825C25.1535 4.16602 24.5498 4.16664 23.8247 4.16664V6.66662ZM29.6811 7.07092C29.2153 5.88764 28.2788 4.95112 27.0955 4.48525L26.1796 6.81145C26.7175 7.0232 27.1433 7.4489 27.355 7.98674L29.6811 7.07092ZM24.7406 16.4485C25.9216 16.2714 26.8265 16.1535 27.5671 15.7601L26.394 13.5524C26.1255 13.6951 25.75 13.7692 24.3698 13.9762L24.7406 16.4485ZM27.4998 10.3418C27.4998 11.7373 27.4821 12.1197 27.3808 12.4064L29.7381 13.239C30.0174 12.4483 29.9998 11.5359 29.9998 10.3418H27.4998ZM27.5671 15.7601C28.581 15.2214 29.3558 14.3216 29.7381 13.239L27.3808 12.4064C27.2071 12.8985 26.855 13.3075 26.394 13.5524L27.5671 15.7601ZM17.5755 14.9954C16.2534 15.1937 15.1459 15.3576 14.2747 15.6026C13.3696 15.8571 12.5687 16.237 11.9436 16.9629L13.8379 18.5944C14.0204 18.3825 14.3004 18.1922 14.9514 18.0092C15.6362 17.8165 16.56 17.6757 17.9464 17.4677L17.5755 14.9954ZM13.3409 21.2707C13.3706 19.4947 13.5354 18.9457 13.8379 18.5944L11.9436 16.9629C10.9756 18.087 10.8694 19.5477 10.8413 21.229L13.3409 21.2707ZM12.0832 22.4998H12.0911V19.9999H12.0832V22.4998ZM2.08332 4.16664H1.24999V6.66662H2.08332V4.16664ZM6.24995 2.49998H8.74994V2.70312e-06H6.24995V2.49998ZM15.4166 2.49998H17.9165V2.70312e-06H15.4166V2.49998Z" fill="#275BE2"/>
</svg>
