<svg width="32" height="32" viewBox="0 0 32 32" fill="none" xmlns="http://www.w3.org/2000/svg">
<path d="M11.5 16.12L14.5 19L20.5 13" stroke="#DEAD00" stroke-width="2" stroke-linecap="round" stroke-linejoin="round"/>
<path d="M23.5 3.00673C21.2936 1.73046 18.7321 1 16 1C7.71572 1 1 7.71572 1 16C1 18.3995 1.56343 20.6674 2.56519 22.6787C2.83141 23.2132 2.92001 23.8241 2.76568 24.4009L1.87227 27.7401C1.48443 29.1895 2.81051 30.5155 4.26002 30.1278L7.59909 29.2344C8.1759 29.08 8.78682 29.1686 9.3213 29.4347C11.3326 30.4366 13.6005 31 16 31C24.2842 31 31 24.2842 31 16C31 13.2679 30.2695 10.7063 28.9933 8.5" stroke="#DEAD00" stroke-width="2" stroke-linecap="round"/>
</svg>
