<svg width="34" height="34" viewBox="0 0 34 34" fill="none" xmlns="http://www.w3.org/2000/svg">
<path d="M17 17C19.4853 17 21.5 14.9853 21.5 12.5C21.5 10.0147 19.4853 8 17 8C14.5147 8 12.5 10.0147 12.5 12.5C12.5 14.9853 14.5147 17 17 17Z" stroke="#295FE6" stroke-width="3"/>
<path d="M25.9537 29C25.715 24.6628 24.3871 21.5 16.9999 21.5C9.61282 21.5 8.28487 24.6628 8.04614 29" stroke="#295FE6" stroke-width="3" stroke-linecap="round"/>
<path d="M9.5 4.00673C11.7063 2.73046 14.2679 2 17 2C25.2842 2 32 8.71572 32 17C32 25.2842 25.2842 32 17 32C8.71572 32 2 25.2842 2 17C2 14.2679 2.73046 11.7063 4.00673 9.5" stroke="#295FE6" stroke-width="3" stroke-linecap="round"/>
</svg>
