<svg width="22" height="22" viewBox="0 0 22 22" fill="none" xmlns="http://www.w3.org/2000/svg">
<path d="M9.5 14L12.5 11M12.5 14L9.5 11" stroke="#FFF9F9" stroke-width="1" stroke-linecap="round"/>
<path d="M21 10.7979C21 8.16554 21 6.84935 20.2305 5.99383C20.1598 5.91514 20.0849 5.84024 20.0062 5.76946C19.1506 5 17.8345 5 15.2021 5H14.8284C13.6747 5 13.0979 5 12.5604 4.84678C12.2651 4.7626 11.9804 4.64471 11.7121 4.49543C11.2237 4.22367 10.8158 3.81578 10 3L9.4497 2.44975C9.1763 2.17633 9.0396 2.03961 8.89594 1.92051C8.27652 1.40704 7.51665 1.09229 6.71557 1.01738C6.52976 1 6.33642 1 5.94975 1C5.06722 1 4.62595 1 4.25839 1.06935C2.64031 1.37464 1.37464 2.64031 1.06935 4.25839C1 4.62595 1 5.06722 1 5.94975M20.9913 15C20.9554 17.4796 20.7715 18.8853 19.8284 19.8284C18.6569 21 16.7712 21 13 21H9C5.22876 21 3.34315 21 2.17157 19.8284C1 18.6569 1 16.7712 1 13V10" stroke="#FFF9F9" stroke-width="1" stroke-linecap="round"/>
</svg>
